<svg width="20" height="19" viewBox="0 0 20 19" fill="none" xmlns="http://www.w3.org/2000/svg">
<path d="M1.25 8.00303H16.075L11.5375 2.55303C11.3253 2.29776 11.2232 1.96866 11.2537 1.63813C11.2842 1.30759 11.4447 1.0027 11.7 0.79053C11.9553 0.578357 12.2844 0.47628 12.6149 0.506754C12.9454 0.537229 13.2503 0.697759 13.4625 0.95303L19.7125 8.45303C19.7545 8.51268 19.7922 8.57535 19.825 8.64053C19.825 8.70303 19.825 8.74053 19.9125 8.80303C19.9692 8.94635 19.9988 9.09892 20 9.25303C19.9988 9.40714 19.9692 9.55971 19.9125 9.70303C19.9125 9.76553 19.9125 9.80303 19.825 9.86553C19.7922 9.93071 19.7545 9.99337 19.7125 10.053L13.4625 17.553C13.345 17.6941 13.1978 17.8076 13.0314 17.8854C12.8651 17.9632 12.6836 18.0033 12.5 18.003C12.2079 18.0036 11.9249 17.9019 11.7 17.7155C11.5734 17.6106 11.4688 17.4817 11.3921 17.3363C11.3154 17.1908 11.2682 17.0317 11.2531 16.868C11.238 16.7043 11.2553 16.5392 11.3041 16.3822C11.3529 16.2252 11.4322 16.0793 11.5375 15.953L16.075 10.503H1.25C0.91848 10.503 0.600536 10.3713 0.366116 10.1369C0.131695 9.90249 0 9.58455 0 9.25303C0 8.92151 0.131695 8.60357 0.366116 8.36915C0.600536 8.13473 0.91848 8.00303 1.25 8.00303Z" fill="white"/>
</svg>
